<svg xmlns="http://www.w3.org/2000/svg" width="523.35468pt" height="539.77008pt" fill-rule="evenodd" viewBox="0 0 523.35467 539.77007"><g style="stroke-width:.581387"><path d="M232.344 95.61c63.36 0 114.984 51.696 114.984 115.056 0 63.432-51.624 115.128-114.984 115.128v-21.6c51.48 0 93.384-41.976 93.384-93.528 0-51.48-41.904-93.456-93.384-93.456zm0 230.184c-63.432 0-115.128-51.696-115.128-115.128 0-63.36 51.696-115.056 115.128-115.056v21.6c-51.552 0-93.528 41.976-93.528 93.456 0 51.552 41.976 93.528 93.528 93.528z" style="fill:#c5c7c9;stroke:none;stroke-width:.338011" transform="matrix(1.72002 0 0 1.72002 -141.923 -104.073)"/><path d="M187.704 123.474v-1.224a.55.55 0 0 0 .36-.144l.504 1.008-.792.36zm0-5.616 3.672 3.744v.432q0 .216-.216.432a1.6 1.6 0 0 1-.36.288l-.576.216.36 1.008.576-.216c.144-.072.36-.144.576-.216.144-.144.288-.216.432-.36s.216-.36.288-.576c.144-.144.144-.432.144-.648l.072-7.2-1.224.432-.072 4.608-3.24-3.312-.432.216zm0-1.152v1.152l-.792-.864zm0 5.544c-.072.072-.216.072-.36.072a1 1 0 0 1-.288-.216c0-.144-.072-.216-.072-.36l-1.368-2.88.864-.36-.504-1.008-.792.36-.792-1.728-.36.216v3.24l.36-.144 1.44 3.024c.144.288.216.504.36.648s.288.288.432.36.36.072.576.144c.144 0 .36-.072.504-.144zm-3.672 2.952v-2.088l.936 1.656zm0-8.856v3.24l-.288.144-.432-1.008.648-.288-.792-1.728zm0 6.768-1.944-3.816-.432.144v1.872l2.16 4.032.216-.144zm-2.376 3.384v-1.728l.792 1.296zm0-7.056v1.872l-.72-1.44zm0 5.328v1.728l-.36.216-.576-1.08v-2.592zm-.936-6.048v-1.44l.288-.144.576 1.152zm0-1.44v1.44l-.288.144-.576-1.08zm0 5.76v2.592l-2.232-3.888v-2.664zm-2.232 4.68.288.504 1.08-.648-1.368-2.448zm0-8.64v2.664l-1.368-2.448 1.08-.648zm0 6.048v2.592l-2.232-3.96v-1.224l.576-.36zm-2.232 4.824c.288-.36.432-.792.504-1.224.144-.792-.072-1.584-.504-2.304zm0-8.712v-.072l.072.072zm0-.072v.072l-1.08.648-.648-1.152 1.152-.648zm0 1.368v1.224l-.576-.936zm0 3.888v3.528a2.6 2.6 0 0 1-.792.72 4.2 4.2 0 0 1-1.008.36 2.06 2.06 0 0 1-.936 0v-1.008c.36.072.72 0 1.152-.288s.72-.648.72-1.152c.072-.504-.072-1.008-.432-1.584-.288-.504-.72-.864-1.224-1.008-.072-.072-.144-.072-.216-.072v-1.368c.216 0 .432.072.648.144.792.216 1.44.72 2.016 1.584 0 0 .072.072.072.144m-2.736 5.184v-.432l.144.36zm0-7.056v1.368a1.6 1.6 0 0 0-1.152.216c-.504.288-.72.72-.792 1.224-.072.432.072 1.008.432 1.512.36.576.792.936 1.224 1.08.072.072.216.072.288.072v1.008h-.144l.144.144v.432l-.936.576-4.32-6.768v-.648l.792-.504 1.656 2.52c.072-.36.216-.72.432-1.008s.432-.504.792-.72a2.6 2.6 0 0 1 1.584-.504m-5.256 11.16v-2.664c.288.576.36 1.152.216 1.8q0 .432-.216.864m0-4.68 2.088 2.952 1.08-.72-3.168-4.464zm0-6.264v.648l-.288-.432zm0 4.032v2.232l-.576-.864v-1.872l.144-.072zm0 4.32v2.592c-.144.216-.36.504-.576.72v-2.88zm-.576-4.824v1.872l-.936-1.224zm0 5.256v2.88a1 1 0 0 0-.288.216c-.72.648-1.584.864-2.376.72s-1.44-.576-1.944-1.152v-4.608c.072-.072.072-.144.144-.144.72-.576 1.368-.792 2.088-.72s1.224.288 1.656.648l-1.08.864c-.216-.144-.432-.216-.792-.288s-.72.072-1.08.36q-.648.54-.648 1.296c0 .504.216 1.008.576 1.512.432.504.864.792 1.368.936.504.072.936 0 1.368-.36.36-.216.504-.576.576-.864.072-.36.072-.648-.072-.936zm-4.608 6.336v-1.872l1.008 1.08-.936.864zm4.104-12.6-.72-1.008-1.08.72.72 1.08zm-4.104 4.32v4.608l-.216-.216c-.576-.72-.864-1.584-.792-2.376 0-.792.36-1.44 1.008-2.016m0 6.408-1.872-2.016q-.432-.432-1.296-.648c-.576-.144-1.08 0-1.584.432-.432.288-.72.648-.864 1.008s-.216.72-.288 1.08l-.36-.432-.864.864v.072l4.176 4.464.936-.936-2.376-2.52c-.36-.36-.504-.72-.504-1.152s.144-.792.504-1.08c.288-.288.648-.432.936-.432s.648.216 1.008.576l2.448 2.592zm-7.128 9.36v-.144zm0-4.536v-1.8l3.024 2.952-.864.936zm0-4.536v.072h-.072zm0 2.736v1.8l-1.152-1.08v-1.8zm0 6.192v.144l-.936 1.08-.216-.072v-3.24zm-1.152-7.272v1.8l-1.152-1.08v-.072l.864-.936zm0 5.184v3.24l-1.152-.36v-1.368l.648.216-.648-1.152v-2.592zm-1.152-6.12v-.144l.072.072zm0-.144v.144l-.792.864-.936-.864.864-.936zm0 1.728v.072zm0 2.52v2.592l-1.728-3.168.936-1.008zm0 3.528-2.736-.936v1.296l2.736 1.008zm-2.736 4.104v-1.584l2.16 1.656-.792 1.008zm0-5.04v1.296l-2.088-.792.864-1.008zm0 3.456v1.584l-1.512-1.152q-.648-.432-1.08-.432c-.288 0-.648.216-.864.576-.288.36-.432.72-.36 1.152s.288.792.72 1.08l2.736 2.088-.792 1.08-2.88-2.232v-4.464c.432-.504.936-.72 1.512-.72.576.072 1.008.216 1.368.504zm-4.032 7.416 1.296.864.72-1.008-2.016-1.44zm0-8.136v4.464l-2.016-1.512.792-1.08.432.36c0-.36 0-.72.072-1.152.144-.36.36-.72.72-1.08m0 6.552-3.096-2.088-.72 1.008 3.816 2.664zm-5.832 14.4v-1.8s.072-.072.072-.144c.216-.36.216-.792.072-1.152 0-.144-.072-.216-.144-.36v-1.728l2.232 1.296-.576 1.08-.576-.288c.144.36.144.72.144 1.08 0 .432-.144.792-.36 1.152q-.324.54-.864.864m0-7.2v-3.888l.36.216c-.072.216-.216.36-.216.504-.072.144-.144.36-.144.504 0 .36.072.72.216 1.008.216.288.504.576.936.864l2.52 1.512-.648 1.152zm1.8-9.936-1.008-.72-.72 1.08 1.008.72zm-1.8 6.048v3.888l-2.304-1.368.72-1.152.648.432c-.072-.216-.144-.432-.144-.648a1.23 1.23 0 0 1 0-.72c0-.144.072-.36.144-.576.144-.216.144-.288.216-.36zm0 5.904v1.728c-.144-.216-.432-.432-.72-.576l-2.952-1.656v-.072l.576-1.08zm0 3.384v1.8c-.144.072-.216.144-.36.144-.576.216-1.152.144-1.8-.216l-1.512-.864v-1.512l1.728 1.008c.504.216.864.288 1.224.216.288-.072.504-.216.72-.576m-3.672 9.288v-1.512a2.6 2.6 0 0 0 .576-.864c.288-.72.216-1.44-.144-2.088-.144-.216-.288-.36-.432-.576v-1.8c.72.504 1.224 1.08 1.584 1.8.504.936.504 2.016.072 3.096-.36.936-.936 1.584-1.656 1.944m0-13.248v.072h-.072zm0 3.312v1.512l-2.088-1.08.648-1.152zm0 3.096v1.8c-.432-.36-.936-.72-1.512-.936-.36-.144-.648-.288-1.008-.36v-1.44a6 6 0 0 1 1.512.432c.36.144.648.36 1.008.504m0 5.328v1.512c-.216.072-.432.144-.576.216-.648.216-1.224.288-1.944.144v-1.368a5.3 5.3 0 0 0 1.512 0c.36-.072.72-.288 1.008-.504m-2.52 10.944v-3.672l.432.648c.288.576.288 1.224 0 2.088-.072.36-.216.648-.432.936m-3.6 32.616h.144l-.144-3.96zm3.6-49.824v1.44c-.504-.072-1.008-.072-1.44.072-.792.144-1.296.648-1.584 1.368s-.288 1.44.144 2.016c.36.648 1.008 1.152 1.944 1.584.288.072.648.216.936.288v1.368c-.432 0-1.008-.144-1.512-.36-.864-.432-1.584-.864-2.088-1.512v-4.824a3.33 3.33 0 0 1 1.728-1.224c.576-.216 1.224-.288 1.872-.216m0 13.536v3.672c-.288.432-.648.72-1.152.936-.792.36-1.584.432-2.448.216v-2.52l.72-2.376a1.23 1.23 0 0 0-.72 0v-1.296c.648-.144 1.368 0 2.232.288l-1.512 4.68c.504.072.936 0 1.368-.216s.72-.504.864-.936q.216-.648 0-1.08c-.144-.288-.216-.504-.432-.648l.432-1.368q.432.324.648.648m-3.6 27.792v-.072zm0-2.952v-1.296h.288l-.072 1.296zm0-3.024v-4.392c.144.144.288.288.432.504q.54.864.432 1.944-.216 1.404-.864 1.944m0-6.048v-1.584q.324-.324.432-.864a1.6 1.6 0 0 0-.216-1.152l-.216-.216v-1.584l1.944.432-.288 1.224-.576-.072c.216.288.36.576.432.936.144.432.144.792 0 1.224a2.5 2.5 0 0 1-.864 1.368c-.216.072-.432.216-.648.288m0-7.128v-1.368l2.52.648-.288 1.296zm-.072 21.528-1.224.072.216 4.752-2.592.144-.216-4.464-1.152.072.144 4.464-2.304.072-.216-4.68-1.224.072.288 5.976 8.352-.36v-3.96zm.072-42.264v4.824c-.216-.216-.36-.504-.504-.72-.432-1.008-.504-2.016 0-3.168a3.9 3.9 0 0 1 .504-.936m0 10.728v1.296c-.144 0-.36.072-.504.144-.36.216-.648.576-.792 1.008s-.072.864.072 1.224c.216.432.504.72.936.936l.288-.936v2.52s-.072 0-.144-.072c-.864-.288-1.584-.792-2.016-1.512-.432-.792-.504-1.584-.216-2.52.288-.792.792-1.368 1.584-1.8.216-.144.504-.216.792-.288m0 8.64-.288-.072c-.504-.144-.864-.288-1.152-.576-.288-.216-.432-.504-.504-.864-.072-.144-.072-.36-.072-.504 0-.216.072-.36.144-.576l-1.296-.36c0 .072-.072.144-.072.36-.072.288-.072.432 0 .648 0 .216.072.432.144.648.144.216.288.432.432.576l-.792-.216-.288 1.296 3.744 1.008zm0 3.096v1.584c-.216-.216-.576-.36-.936-.432l-3.384-.72.288-1.224zm0 3.816v1.584c-.36.072-.72.072-1.152 0l-3.96-.864.216-1.296 3.6.72c.504.144.864.072 1.152-.072.072 0 .144-.072.144-.072m0 3.24v4.392l-.216.216c-.648.36-1.152.504-1.512.504l.144-1.296c.288 0 .576-.144.792-.36q.324-.432.432-1.08c.072-.433 0-.72-.072-1.008-.144-.217-.288-.36-.504-.432s-.288 0-.432.072c-.144.143-.288.288-.36.504-.216.288-.36.648-.432 1.008-.144.432-.216.72-.36 1.008-.144.36-.36.648-.72.864-.288.216-.648.288-1.008.216-.504-.072-.864-.36-1.224-.864-.36-.432-.504-1.08-.432-1.872.144-.864.432-1.44.936-1.872.504-.36.936-.576 1.368-.504l-.072 1.224c-.216 0-.432.072-.648.288s-.36.504-.36 1.008c-.072.432 0 .72.072.936.144.216.288.36.504.36s.36 0 .432-.216c.144-.144.216-.288.288-.504.144-.288.216-.649.36-1.008q.216-.649.432-1.08c.216-.288.432-.504.72-.72.216-.216.576-.288 1.008-.288.288.072.576.216.864.504m0 6.12v1.296l-3.456-.216c-.504 0-.864.072-1.152.216-.216.216-.36.576-.432 1.008 0 .432.144.792.432 1.152.288.288.648.432 1.152.504l3.456.216v.072l-.072 1.224-6.12-.36.072-1.368.504.072a3.9 3.9 0 0 1-.504-.936c-.144-.432-.216-.864-.072-1.368.072-.648.36-1.08.864-1.368s1.008-.432 1.44-.432zM334.512 221.25v-1.368l2.52.288.072-.792 1.08.144-.072.72 1.872.216-.072 1.296-1.944-.144-.072.864-1.08-.144.072-.864zm0-5.04v-1.368l3.96.216v1.296h-.792c.144.072.36.288.432.432.144.216.288.432.36.648.072.144.144.36.144.576v.36h-1.296c0-.216 0-.432-.072-.576 0-.216-.072-.36-.144-.504-.144-.36-.36-.576-.648-.792-.36-.144-.72-.288-1.224-.288zm0-2.808v-1.44q.54.216 1.08.216c.648 0 1.152-.216 1.584-.504.36-.288.576-.72.576-1.296q0-.756-.648-1.296-.54-.432-1.512-.432c-.432 0-.72.072-1.08.216v-1.44c.36-.144.72-.144 1.08-.144.936 0 1.728.216 2.376.792s.936 1.368.936 2.304-.288 1.728-.936 2.304q-.864.864-2.376.864c-.36 0-.72 0-1.08-.144m0-7.128v-1.44c.288.072.576.072.936.072.648-.072 1.152-.216 1.512-.576s.504-.792.504-1.368c0-.504-.216-.937-.648-1.224-.36-.288-.936-.432-1.584-.36-.288 0-.504.072-.72.144v-1.44l3.672-.216.072 1.296-.504.071c.288.217.504.577.648.865s.216.648.288 1.08c0 .864-.216 1.584-.792 2.16s-1.368.864-2.376.936zm0-7.56v-1.44h.36c.648-.144 1.08-.36 1.44-.72.288-.36.432-.792.36-1.368s-.36-.936-.792-1.152c-.36-.216-.792-.288-1.368-.288v-1.296l2.52-.432.216 1.296-.504.072c.288.216.576.504.72.792.216.288.36.648.432 1.008.144.864-.072 1.656-.576 2.232-.504.648-1.224 1.08-2.232 1.224-.216.072-.36.072-.576.072m0-8.064v-1.296l2.016-.432.288 1.224zm0-4.248v-1.368l1.152-.216.288 1.296zm0-7.92v-1.368c.288.072.576.144.864.288.72.288 1.152.936 1.512 1.944.36 1.08.216 2.016-.288 2.664-.576.648-1.08 1.008-1.512 1.152l-.432-1.224a1.86 1.86 0 0 0 1.008-.792c.216-.36.216-.864.072-1.44-.216-.576-.432-.936-.792-1.08-.144-.072-.288-.144-.432-.144m0-1.368v1.368c-.144-.072-.36 0-.504 0-.36.144-.576.288-.648.576a2.6 2.6 0 0 0-.144.792c0 .288 0 .72.072 1.152a5.3 5.3 0 0 1 0 1.512c-.072.504-.216.936-.576 1.368-.288.36-.72.576-1.224.648-.648.144-1.296 0-1.944-.36s-1.152-1.008-1.44-2.016c-.36-1.08-.288-2.016.216-2.736.504-.792 1.152-1.296 1.872-1.512l.36 1.296c-.576.144-1.008.504-1.224 1.008s-.216 1.008-.072 1.584.432.936.792 1.152c.288.216.648.288 1.008.288.36-.072.576-.144.72-.36s.216-.504.288-.864 0-.792-.072-1.224-.144-.864-.072-1.296c.072-.648.216-1.152.432-1.584.288-.36.648-.648 1.224-.792.288-.072.648-.072.936 0m0 7.92v1.368l-2.16.504c-.504.072-.864.288-1.008.576-.216.288-.288.648-.144 1.08.072.432.36.72.72.936.288.216.72.288 1.296.144l1.296-.288v1.296l-3.672.864-.288-1.296.648-.144c-.36-.144-.576-.432-.864-.72q-.324-.432-.432-1.08c-.144-.576-.072-1.08.288-1.584.288-.504.792-.864 1.44-1.008zm0 7.416v1.296c-.072.072-.144.072-.216.072a2.5 2.5 0 0 0-1.512.72c-.288.36-.432.792-.36 1.368.072.504.36.936.792 1.152q.54.324 1.296.216v1.44c-.72.072-1.44-.072-1.944-.432q-1.08-.756-1.296-1.944c-.072-.432 0-.792.072-1.152.072-.288.216-.648.432-.936l-2.232.36-.216-1.296zm0 7.632v1.44a1.7 1.7 0 0 0-.792.432c-.432.288-.576.72-.504 1.296q0 .864.648 1.296c.216.072.432.216.648.288v1.44c-.576-.144-1.08-.36-1.44-.648-.648-.504-1.008-1.224-1.08-2.088 0-.36.072-.72.144-1.08.144-.288.36-.648.576-.936l-2.232.144-.144-1.296zm0 7.344v1.44c-.144.072-.36.144-.504.288-.36.288-.576.72-.576 1.224 0 .576.216 1.008.576 1.296.216.144.36.216.504.288v1.44c-.432-.072-.864-.36-1.296-.648-.648-.576-.936-1.368-.936-2.304-.072-1.008.288-1.728.936-2.304.36-.36.792-.648 1.296-.72m0 7.416v1.368l-2.232-.144.072-1.296zm0 5.04v1.368l-.792-.072c-.072 0-.216-.072-.288-.072-.144 0-.216.072-.36.144-.072.144-.144.216-.144.36-.072.144-.072.216-.072.36l-1.08-.072.072-.864c0-.216.072-.432.216-.576s.216-.288.36-.433c.144-.071.36-.143.504-.215h.72zm-9.72-49.032v-1.44l4.752-2.088.504 1.224-.504.216c.36.144.648.36.936.576.288.288.576.648.72 1.152.144.648.144 1.224-.216 1.656a2.7 2.7 0 0 1-1.008 1.008l-3.888 1.656-.504-1.224 3.312-1.44c.504-.216.792-.432.936-.72s.072-.648-.072-1.08q-.324-.648-.864-.864c-.432-.144-.792-.072-1.296.144zm0-3.168c.504 0 .936-.144 1.44-.36.864-.432 1.44-1.008 1.728-1.8.36-.864.288-1.656-.144-2.52s-1.08-1.44-1.872-1.656c-.36-.072-.792-.144-1.152-.072v1.368q.432-.108.864 0 .756.216 1.08.864c.216.504.288 1.008.072 1.44a2.3 2.3 0 0 1-1.224 1.08c-.216.144-.504.288-.792.288zm0-8.208v-1.44h.072l.648 1.08zm0-4.32v-.864l.432.648zm1.656 3.456 1.08-.576-.576-1.152-1.152.576zm-1.656-4.32v.864l-1.224.792.504.72-.936.576-.504-.72-.288.216v-2.448l.144-.144.432.648 1.584-1.008zm0 3.744v1.44l-2.448 1.368v-1.44zm0 3.24v1.368c-.216.072-.504.144-.72.288-.576.288-1.008.648-1.224 1.08-.216.504-.216.936 0 1.44.288.504.648.792 1.152.864.288.072.504.072.792 0v1.368c-.36.072-.72 0-1.08-.072a2.5 2.5 0 0 1-1.368-.864v-4.248c.288-.36.648-.576 1.08-.792a2.55 2.55 0 0 1 1.368-.432m0 8.136v1.44l-.36.144-.504-1.224zm-2.448-17.712v-.504l.792-.576.72 1.08-1.08.72zm0-.504v.504l-.288-.36zm0 3.096v2.448l-2.376 1.44c-.144.072-.216.144-.288.144-.144.072-.144.144-.216.288 0 .144.072.288.072.432.072.072.144.216.216.288l-.936.576v-2.592c.072-.072.216-.144.288-.216l2.88-1.728-.432-.648zm0 5.112-2.952 1.584.648 1.08 2.304-1.224zm0 3.096v4.248c-.216-.216-.36-.504-.504-.792-.432-.864-.504-1.656-.144-2.448.144-.36.36-.72.648-1.008m-3.528-7.416 3.096-2.088-.72-1.08-2.376 1.656zm0-3.6v-3.168c.144.144.288.288.36.504.36.576.432 1.08.216 1.656-.144.36-.288.72-.576 1.008m0-3.168v3.168c-.072.072-.144.144-.216.144l-.792.648v-1.728c.144-.144.216-.36.288-.504.072-.36-.072-.648-.288-1.008v-1.368l.432.216c.216.072.432.216.576.432m0 5.256v1.512l-1.008.72v-1.512zm0 3.744v2.592l-.432-.72a.82.82 0 0 1-.216-.576c0-.216 0-.36.072-.576.072-.144.144-.36.288-.432a.56.56 0 0 1 .288-.288m-1.008-9.648v1.368h-.072c-.216-.36-.576-.576-1.008-.648-.432 0-.792.072-1.224.432l-1.656 1.224v-1.656l3.024-2.232.792 1.008-.432.36c.144 0 .36.072.576.144m0 2.88v1.728l-2.52 1.944-.792-1.008 2.88-2.232zm0 3.744v1.512l-1.008.72-.72-1.08zm-3.96-8.136 1.944-1.584-.792-1.008-1.152.936zm0-1.656v1.656l-2.808 2.304-.792-1.008.504-.36c-.36-.072-.72-.144-1.08-.288-.072-.072-.216-.144-.288-.216v-3.816l2.952-2.448.792 1.008-2.808 2.376c-.36.288-.576.648-.648.936-.072.36.072.72.36 1.008.288.36.648.576 1.08.576.36 0 .792-.144 1.224-.504zm0 3.888-1.872 1.44.792 1.08 1.08-.864zm-4.464-7.776.288-.288c.36-.432.576-.792.72-1.296s0-.936-.36-1.44c-.216-.288-.432-.432-.648-.576zm0-3.6v3.6l-2.664 2.664-.936-.936 2.664-2.664c.288-.36.504-.648.576-.864.144-.288 0-.576-.288-.864-.288-.216-.648-.36-1.008-.288a2.1 2.1 0 0 0-1.008.576l-2.52 2.592-.936-.936 2.664-2.664c.36-.36.504-.648.648-.864.072-.288-.072-.576-.36-.864s-.648-.36-.936-.288c-.36 0-.72.216-1.08.576l-2.232 2.304v-1.872l3.096-3.168.936.936-.36.432c.288-.072.576 0 .936.072.288.072.648.288.936.648.216.216.288.432.36.72s.072.576-.072.864c.288 0 .576 0 1.008.072.216 0 .36.072.576.216m0 5.76-.216.144c-.576.504-.864 1.008-.864 1.584q-.108.864.432 1.512c.216.288.432.432.648.576zm-7.416-8.928.504-.576c.36-.432.576-.864.648-1.368s-.072-.936-.504-1.368c-.216-.216-.432-.432-.648-.504zm-7.848-9.144.648-3.024-.648-.432zm7.848 5.328v3.816l-2.16 2.592-1.008-.792 2.376-2.952c.288-.36.504-.648.576-.936.072-.216-.072-.504-.432-.792-.288-.216-.648-.288-.936-.216-.36.072-.72.288-1.008.72l-2.232 2.736-.936-.792 2.304-2.952c.288-.36.432-.648.504-.936.072-.216-.072-.504-.432-.792-.288-.216-.576-.288-.936-.216-.288.072-.576.288-.864.72l-2.304 2.736-.36-.288v-1.296l3.24-3.96.936.864-.36.432c.288-.072.576-.072.936 0s.72.216 1.008.504c.216.216.36.504.432.72.144.288.144.576.072.936.216-.072.504-.072.936-.072q.324 0 .648.216m0 6.192-1.152 1.224.936.936.216-.288zm-9.144-5.544 1.296-5.976v-3.456l-.648-.432-1.8 1.296v1.512l1.656-1.152-.864 4.032-.792-.576v1.44l.504.36-.432 2.232zm1.296-.288v1.296l-.648-.504zm-2.448-8.28-5.688 3.96 1.08.792 1.8-1.296 2.808 1.8v-1.44l-1.728-1.08 1.728-1.224z" style="fill:#2c2c2b;stroke:none;stroke-width:.338011" transform="matrix(1.72002 0 0 1.72002 -141.923 -104.073)"/><path d="M331.488 263.802c.144.648.432 1.223.72 1.8 5.616 12.888 11.232 25.848 16.56 38.88 1.584 3.96 3.168 7.92 4.752 11.808.936 2.304 1.944 4.608 2.88 6.912 1.152 3.024 2.088 6.12 2.664 9.288.216 1.08.216 2.16.144 3.168 0 1.512-2.088 4.896-3.744 5.616-1.368.72-2.808.72-4.32.288-1.368-.432-2.592-1.152-3.888-1.8a240 240 0 0 1-9.432-5.184 594 594 0 0 1-36.432-22.824c-2.592-1.729-5.04-3.528-7.56-5.328-.36-.216-.72-.432-1.008-.648-1.08-.144-1.8-.936-2.592-1.512a2252 2252 0 0 1-13.68-9.936c-.504-.36-1.08-.648-1.152-1.368.072-.216.216-.288.432-.36 1.008 0 1.944.36 2.808.648 7.272 2.448 14.616 4.536 21.816 6.983 6.84 2.233 13.752 4.609 20.664 6.697.288.144.648.216.936.288.792.072 1.008-.288.864-1.008-.072-.432-.288-.864-.432-1.296-2.448-5.976-4.752-12.024-7.2-18.072-3.24-8.424-6.552-16.92-9.864-25.344-2.664-7.128-5.472-14.184-8.136-21.24-8.712-22.68-17.568-45.288-26.352-67.968-6.48-16.704-12.888-33.408-19.44-50.04-3.456-9.072-7.056-18.144-10.584-27.216-3.24-8.568-6.624-17.064-9.864-25.56 0-.216-.216 0 0-.072 0 0 .072.072.072.144-2.736 8.64-6.48 16.848-9.576 25.344-3.456 8.856-6.84 17.784-10.296 26.64l-.648 1.512c-9.144 23.616-18.288 47.16-27.432 70.704-5.4 13.896-10.8 27.864-16.2 41.76a2211 2211 0 0 0-8.928 23.184 3382 3382 0 0 0-11.16 28.656c-2.376 5.904-4.608 11.952-6.984 17.928-.072.144-.144.288-.144.504-.216.576-.432 1.224.072 1.728s1.08.216 1.656 0c6.192-2.088 12.528-3.96 18.72-6.12.576-.216 1.08-.361 1.656-.576 5.184-1.512 10.224-3.312 15.336-5.04 2.736-.936 5.4-2.088 8.28-2.736.288.072.576.144.72.432.072.72-.504.936-.936 1.296a692 692 0 0 1-14.76 10.584c-.432.288-.792.648-1.368.576-1.656 1.152-3.384 2.304-5.04 3.456-11.16 7.632-22.392 15.192-33.984 22.32-4.392 2.664-8.856 5.328-13.464 7.632a49 49 0 0 1-4.464 1.944c-.648.216-1.296.432-2.016.576-1.944.36-3.672-.288-4.896-1.8-1.296-1.584-1.728-3.312-1.512-5.328.504-5.112 1.8-10.008 3.6-14.76 1.584-3.888 3.168-7.776 4.824-11.664a7424 7424 0 0 1 18-42.192c.144-.432.36-.792.36-1.224.216-1.872 1.296-3.456 2.016-5.112a2667 2667 0 0 1 12.96-29.808c3.384-7.776 6.84-15.48 10.44-23.112 2.592-5.4 5.112-10.872 7.704-16.272 5.184-10.872 10.296-21.744 15.48-32.544 1.944-4.176 3.96-8.352 5.976-12.528 2.592-5.328 5.04-10.728 7.632-15.984 4.968-10.224 9.936-20.448 14.832-30.672.36-.72.648-1.512 1.296-2.088.432-.432.576-.936.864-1.44 2.808-5.688 5.688-11.376 8.568-17.064.792-1.656 1.584-3.24 2.52-4.824 1.44-2.304 2.736-4.68 4.104-7.056a15 15 0 0 1 5.616-5.616c.432-.288.864-.36 1.368-.072 1.152.576 2.304 1.224 3.312 2.088s1.8 1.944 2.376 3.168c3.168 6.336 6.336 12.744 9.504 19.08 1.728 3.456 3.456 6.984 5.184 10.44.216.432.504.864.72 1.296.504.504.72 1.08 1.008 1.656 4.896 9.576 9.36 19.296 14.184 28.872 3.816 7.992 7.704 15.912 11.52 23.904 5.4 11.376 10.872 22.752 16.2 34.2 4.464 9.432 8.856 19.008 13.248 28.512 3.168 6.912 6.408 13.824 9.576 20.808 2.376 5.4 4.896 10.728 7.272 16.128 1.656 3.816 3.384 7.632 5.112 11.52.144.432.432.936.36 1.44" style="fill:#fc0;stroke:none;stroke-width:.338011" transform="matrix(1.72002 0 0 1.72002 -141.923 -104.073)"/><path d="M232.128 120.162c-2.304-.072-4.608.216-6.912.288-1.728.144-3.528.432-5.328.648-3.096.432-6.12 1.08-9.144 1.8-.144.072-.288.072-.432.072 1.512-4.032 3.096-7.992 4.608-12.024 1.944-4.968 3.888-9.936 5.832-14.976.144-.36.216-.792.504-1.08 1.008-.72 2.232-.504 3.312-.648 2.16-.216 4.32-.072 6.48-.072.432 0 .864.072 1.224.36.36.648.36 1.368.36 2.016v21.528c-.072.72.072 1.44-.504 2.088M315.576 286.626l-.648.432-1.728 1.944c-.288.288-.36.576-.36.936-.648.072-.576-.504-.72-.864-2.952-7.632-5.832-15.336-8.784-22.968-.144-.504-.432-1.008-.144-1.584.72-.432 1.008-1.224 1.512-1.8.36-.432.648-.864 1.008-1.296.72 1.152 1.08 2.52 1.584 3.816l6.912 17.712c.432 1.224.936 2.448 1.368 3.672M238.896 94.818c.792.072 1.584.072 2.376.144.792 2.16 1.656 4.248 2.52 6.408 1.872 4.752 3.744 9.576 5.544 14.328.864 2.16 1.656 4.32 2.448 6.48-.864-.072-1.728-.432-2.664-.36-.504-.144-.648-.648-.792-1.08-3.096-8.064-6.192-16.2-9.216-24.336-.216-.504-.576-1.008-.216-1.584" style="fill:#c3c3c3;stroke:none;stroke-width:.338011" transform="matrix(1.72002 0 0 1.72002 -141.923 -104.073)"/><path d="M185.472 293.322c.432-.36.864-.504 1.44-.576.072.072.072.144.072.216s-.072.144-.072.144c-.288.144-.576.36-.864.504-.144-.216-.36-.216-.576-.288" style="fill:#e0b84b;stroke:none;stroke-width:.338011" transform="matrix(1.72002 0 0 1.72002 -141.923 -104.073)"/><path d="M275.472 293.106c-.072-.072-.216-.072-.216-.144-.144-.072-.144-.216-.216-.36.144 0 .288-.072.36 0 .144 0 .288.144.36.216-.072.072-.216.144-.288.288" style="fill:#cfae60;stroke:none;stroke-width:.338011" transform="matrix(1.72002 0 0 1.72002 -141.923 -104.073)"/><path d="M198.576 111.234c.144-.288.576-.288.864-.432 1.584-.576 2.088-.576 1.944-.432-.504.576-1.296.576-2.016.792-.216.144-.504.072-.792.072M198.576 111.234c-.144.144-.216.288-.432.288-.072-.072-.144-.144-.216-.144.072-.072.072-.072.144-.072.144-.072.288-.072.504-.072" style="fill:#ada6a6;stroke:none;stroke-width:.338011" transform="matrix(1.72002 0 0 1.72002 -141.923 -104.073)"/><path d="M238.896 94.818c1.8 4.752 3.528 9.432 5.328 14.184l4.536 11.88c.144.288.288.576.36.936.072.072.072.216.072.288s0 .144.072.144c2.448 6.408 4.896 12.816 7.272 19.224 13.824 36.36 27.648 72.792 41.328 109.152 1.656 4.392 3.312 8.712 4.968 13.104.144.288.216.503.36.792 1.008 2.592 1.944 5.256 2.952 7.848 2.088 5.472 4.176 11.016 6.264 16.416.144.432.072.864.432 1.152 1.008 2.808 2.088 5.616 3.168 8.424.216.504.432 1.008.576 1.584.144.504-.288 1.008-.864 1.008-.36-.072-.72-.216-1.08-.288-3.312-.936-6.696-1.944-10.08-2.88-.288-.144-.576-.144-.792-.216l-3.456-1.08c-5.328-1.584-10.8-3.168-16.272-4.752-3.384-1.008-6.768-1.944-10.224-2.952-12.816-3.744-25.56-7.488-38.376-11.232-.432-.144-.936-.288-1.368-.432-1.224-.504-1.944-1.44-1.872-2.88v-8.496c0-.288-.072-.648-.072-.936 1.008-.72 2.16-.504 3.24-.648 14.112-1.512 25.632-12.24 28.008-26.208 1.728-10.584-1.08-19.944-8.496-27.721-5.184-5.471-11.736-8.639-19.368-9.575-1.08-.072-2.304.072-3.312-.576v-4.896c.432-1.584 1.728-2.592 2.592-3.888 2.808-4.032 5.4-8.28 7.128-12.96 1.296-3.672 2.232-7.416 1.512-11.376-.648-3.6-2.448-6.408-5.4-8.568-.72-.576-1.224-.504-1.8.288-1.08 1.728-2.016 3.456-2.952 5.184-.216.432-.288 1.08-1.008 1.152-.072-.864-.072-1.728-.144-2.52-.288-.576.072-1.008.288-1.44a15 15 0 0 1 2.304-3.888c1.224-1.44 1.44-3.096 1.152-4.824-.36-3.24-1.296-6.336-3.312-9-.288-.36-.576-.72-.432-1.224.072-.432.072-.936.072-1.368V121.53c0-.504-.072-.936-.072-1.368 0-.36.072-.792.072-1.152V79.338c.072-.288.072-.648.072-.936 0 0 .072-.072.144-.072s.072 0 .144.072c.144.216.288.504.36.792 1.224 3.24 2.448 6.408 3.672 9.576.72 2.016 1.512 4.032 2.304 6.048" style="fill:#2b4d8f;stroke:none;stroke-width:.338011" transform="matrix(1.72002 0 0 1.72002 -141.923 -104.073)"/><path d="M186.912 293.106v-.36c.072-.144.216-.288.36-.072.072.072-.072.216-.144.288s-.144.072-.216.144" style="fill:#cfae68;stroke:none;stroke-width:.338011" transform="matrix(1.72002 0 0 1.72002 -141.923 -104.073)"/><path d="M232.2 200.082c1.728.072 3.528.216 5.256.504 4.248.72 8.28 2.304 11.88 4.68 7.344 4.752 12.168 11.448 14.04 20.016 2.304 10.44 0 19.872-6.912 28.08-4.752 5.76-11.016 9.216-18.288 10.8q-2.916.54-6.048.648c-1.944-.072-3.816-.216-5.76-.577-5.112-.863-9.72-2.807-13.824-5.975-6.408-4.824-10.584-11.16-12.24-19.008-3.6-17.28 6.84-33.192 22.464-37.8 2.808-.792 5.688-1.224 8.64-1.368z" style="fill:#242b25;stroke:none;stroke-width:.338011" transform="matrix(1.72002 0 0 1.72002 -141.923 -104.073)"/><path d="M232.128 142.122c.216.288.432.648.648.936 2.448 3.312 3.528 7.056 3.528 11.16 0 1.08-.36 2.016-1.08 2.88-1.296 1.584-2.304 3.456-3.096 5.4-.072.072-.144.072-.144.144-1.872 3.888-3.6 7.848-4.68 12.024-.72 2.88-1.152 5.832-.936 8.784.144 3.24.864 6.336 2.52 9.144.432.72.936 1.44 1.44 2.16-.216.216-.432.072-.648.072-4.536-1.008-8.64-2.736-12.168-5.688-1.224-1.08-2.376-2.232-3.312-3.6-3.816-5.544-4.248-11.448-1.368-17.568 1.584-3.168 3.96-5.688 6.768-7.776.72-.576 1.512-1.08 2.304-1.584 1.8-1.152 3.456-2.376 4.968-3.888 1.08-1.08 2.016-2.232 2.736-3.528 2.016-3.528 1.872-7.056-.36-10.44-.216-.432-.504-.792-.792-1.152.144-.144.288-.144.432-.072.864.432 1.584 1.152 2.376 1.8.288.216.576.504.864.792" style="fill:#e42c2f;stroke:none;stroke-width:.338011" transform="matrix(1.72002 0 0 1.72002 -141.923 -104.073)"/><path d="M232.272 165.018c.216-.432.504-.864.72-1.368a48 48 0 0 1 3.456-5.832c.432-.648.504-.648 1.08-.216 3.168 2.088 5.328 4.896 6.192 8.712.432 2.304.36 4.608 0 6.84a34 34 0 0 1-2.808 8.424c-2.232 4.752-5.04 9.144-8.352 13.176-.144.144-.288.288-.36.432-.36-.072-.432-.36-.576-.576-1.872-2.88-2.952-6.048-3.384-9.432-.648-5.04.288-9.864 1.8-14.688.648-1.872 1.44-3.672 2.232-5.472" style="fill:#e42c2f;stroke:none;stroke-width:.338011" transform="matrix(1.72002 0 0 1.72002 -141.923 -104.073)"/><path d="M228.24 139.314c-.072-.072-.072-.144-.144-.144.072-.072.144-.144.144-.072.144 0 .216.144.288.216-.072.072-.144.072-.288 0" style="fill:#ee7a6a;stroke:none;stroke-width:.338011" transform="matrix(1.72002 0 0 1.72002 -141.923 -104.073)"/><path d="M228.24 139.314h.288c.216 0 .288.072.36.216-.144 0-.288 0-.432.072-.144-.072-.216-.144-.216-.288" style="fill:#eb5c49;stroke:none;stroke-width:.338011" transform="matrix(1.72002 0 0 1.72002 -141.923 -104.073)"/><path d="M249.264 122.25h-.072v-.144l.144.072z" style="fill:#a49d9c;stroke:none;stroke-width:.338011" transform="matrix(1.72002 0 0 1.72002 -141.923 -104.073)"/><path d="M245.232 165.09c1.584 1.944 3.024 3.96 4.248 6.192 1.008 1.872 1.8 3.888 2.232 6.048.504 3.384-.216 6.48-2.232 9.216a18.1 18.1 0 0 1-3.816 3.6c-2.808 2.016-5.976 3.312-9.216 4.392-.936.288-1.8.576-2.808.72.072-.504.432-.72.72-1.008 1.872-1.872 3.6-3.888 5.112-6.048 1.8-2.664 3.312-5.544 4.392-8.64 1.584-4.608 2.088-9.36 1.008-14.184 0-.288.072-.36.36-.288" style="fill:#e42c2f;stroke:none;stroke-width:.338011" transform="matrix(1.72002 0 0 1.72002 -141.923 -104.073)"/><path d="M245.232 165.09c-.144.144-.216.216-.36.288-.072-.144-.144-.216-.144-.36-.072-.072 0-.216.072-.36.072.072.216.144.288.216s.072.144.144.216" style="fill:#8f4053;stroke:none;stroke-width:.338011" transform="matrix(1.72002 0 0 1.72002 -141.923 -104.073)"/><path d="M216.792 240.834c2.952-.144 5.904 2.52 5.904 6.048 0 3.6-3.096 6.048-6.048 5.976-2.736 0-5.904-2.304-5.832-6.12 0-3.384 2.88-6.048 5.976-5.904" style="fill:#fff;stroke:none;stroke-width:.338011" transform="matrix(1.72002 0 0 1.72002 -141.923 -104.073)"/><path d="M325.8 357.546v-9.072h10.368v2.376h-9.072v6.696zm0-11.016v-2.376h4.968v-2.304H325.8v-2.304h4.968v-2.448h2.736v9.432zm0-6.984v2.304h-4.968v2.304h4.968v2.376h-7.704v-9.432h2.736v2.448zm0 8.928v9.072h-1.44v-6.696h-8.928v-2.376zm-20.448 9.288v-2.304c.576-.072 1.08-.144 1.584-.288.936-.36 1.368-.792 1.368-1.296 0-.576-.432-1.008-1.368-1.296-.504-.144-1.008-.288-1.584-.36v-2.232c1.584.144 2.88.432 3.888 1.008 1.368.72 2.088 1.728 2.088 2.88s-.72 2.088-2.088 2.808c-1.008.576-2.304.864-3.888 1.08m0-9.288v-2.304h.432v2.232c-.144.072-.288.072-.432.072m0-3.096h2.952v4.104h2.736V336.81h-2.736v2.52h-2.952v2.232h2.952v1.584h-2.952zm0-6.048v2.232h-.432v-2.232zm0 3.816v2.232h-.432v-2.232zm0 3.024c-.72.072-1.584.144-2.592.288-1.224.072-2.304.144-3.312.144h-3.168v-2.088h7.344v-6.768h-10.08v2.376h7.344v2.088h-7.344v6.768l4.752-.072c1.44 0 2.808-.072 4.176-.144 1.152-.072 2.16-.216 2.88-.288zm0 3.816v2.232a19 19 0 0 0-2.16-.144c-1.512 0-2.808.144-3.744.504-.936.288-1.44.72-1.44 1.296 0 .504.504.936 1.44 1.296.936.288 2.232.432 3.744.432.792 0 1.512 0 2.16-.144v2.304c-.648 0-1.368.072-2.16.072-2.592 0-4.608-.36-5.976-1.152-1.368-.72-2.016-1.656-2.016-2.808s.648-2.16 2.016-2.88c1.368-.792 3.384-1.152 5.976-1.152.792 0 1.512.072 2.16.144m-45.936 7.056v-2.376h5.976v2.376zm0-6.264v-2.304h2.736V336.81h2.736v15.624h-2.736v-1.656zm0-3.528c.864-.072 1.512-.144 2.016-.288v-2.376c-.288.072-1.008.216-2.016.288zm30.528.144v-2.52h-2.952v-8.064h-2.736v20.736h2.736v-10.152zm-7.344 4.176a10.7 10.7 0 0 1-1.944-1.368c-.648-.504-1.296-1.224-1.944-2.088-.72-.936-1.224-2.088-1.44-3.456-.216-1.296-.36-2.448-.36-3.312v-3.384h-2.808v3.384c0 1.152-.144 2.304-.36 3.384-.216 1.152-.648 2.16-1.224 3.168a9.7 9.7 0 0 1-1.872 2.304c-.792.72-1.584 1.368-2.52 1.944l2.088 1.8c.576-.432 1.08-.792 1.584-1.224.504-.36.936-.792 1.368-1.296.576-.648 1.08-1.224 1.44-1.728s.648-1.08.936-1.656c.216.504.504 1.008.864 1.44.288.504.648.936 1.152 1.44a11.5 11.5 0 0 0 1.728 1.584c.576.432 1.08.72 1.584 1.008zm-23.184-6.696v2.376c-.36.072-.792.072-1.224.144v-2.448c.432 0 .864-.072 1.224-.072m0 3.6v2.304h-1.224v-2.304zm0 6.192v2.376h-1.224v-2.376zm-1.224-12.168v-4.392q.864.972.864 2.16c0 .864-.288 1.584-.864 2.232m0-4.392v4.392c-.144.144-.36.36-.576.504-.936.792-2.304 1.152-4.104 1.152v-2.16c1.008 0 1.8-.216 2.232-.576.432-.432.648-.792.648-1.152s-.216-.72-.72-1.152c-.432-.432-1.152-.576-2.16-.648v-2.016c1.872 0 3.24.36 4.176 1.152.216.144.36.288.504.504m0 6.84v2.448h-.576q-2.592.216-3.672.216v3.528h-.432v-5.904c1.152 0 2.592-.072 4.392-.216.072 0 .216-.072.288-.072m0 3.528h-.864v2.304h.864zm0 6.192v2.376h-4.68v-2.376zm-4.68-18.216v2.016q-1.512 0-2.16.648c-.432.432-.648.792-.648 1.152s.216.72.648 1.152c.432.36 1.152.576 2.16.576v2.16c-1.8 0-3.24-.36-4.176-1.152s-1.368-1.656-1.368-2.736c0-1.008.432-1.872 1.368-2.664 1.008-.792 2.376-1.152 4.176-1.152m0 8.784v5.904h-2.448v-3.528h-4.824v-2.376h7.272m0 9.432v2.376h-3.816v-5.112h2.88v2.736zm-48.312-2.232v-2.448h11.808v7.56h-2.736v-5.112zm0-4.752v-2.304c.936 0 1.656-.216 2.16-.792.576-.576.792-1.224.792-1.944 0-.792-.216-1.44-.792-2.016-.504-.504-1.224-.792-2.16-.792v-2.448c1.656 0 3.096.504 4.176 1.512s1.584 2.232 1.584 3.672-.504 2.664-1.584 3.672-2.52 1.44-4.176 1.44m14.688-1.512v-2.304h-2.952v-2.16h2.952v-2.304h-2.952v-2.592H214.2v12.24h2.736v-2.88zm21.888 11.376V336.81h-2.736v20.736zm-13.32-16.272v.864c0 .576-.072 1.44-.288 2.592-.288 1.08-.648 2.16-1.224 3.096a15.5 15.5 0 0 1-1.944 2.376c-.792.72-1.656 1.44-2.592 2.016l2.304 1.728c.576-.36 1.08-.72 1.584-1.152.432-.36.936-.792 1.368-1.296a20 20 0 0 0 1.368-1.728c.36-.576.72-1.152.936-1.728q.324.756.864 1.512c.288.504.72 1.008 1.152 1.512a8.4 8.4 0 0 0 1.8 1.512c.576.36.936.648 1.152.792l1.728-2.088q-.432-.216-1.512-1.08c-.72-.504-1.368-1.224-2.016-2.088a7.36 7.36 0 0 1-1.44-3.24c-.216-1.224-.288-2.16-.288-2.736v-.864h4.536v-2.376H223.92v2.376zm-23.256-3.888v2.448c-.936 0-1.656.288-2.16.792-.504.576-.792 1.224-.792 2.016 0 .72.288 1.368.792 1.944s1.224.792 2.16.792v2.304c-1.656 0-3.096-.432-4.176-1.44s-1.584-2.232-1.584-3.672.504-2.664 1.584-3.672 2.52-1.512 4.176-1.512m0 12.6v2.448h-3.456v-2.448zm-12.6 7.056v-2.376h1.728v2.376zm0-5.04V336.81h1.08v5.76h2.88v2.448h-2.88v6.984zm0-15.192v15.192h-1.656V336.81Zm0 17.856h-10.728v-4.032h-2.808v6.408H192.6Zm-29.52 2.376v-2.376h7.992v2.376zm0-4.176v-7.488h3.672c.072-.504.216-1.296.432-2.448q.324-1.728.432-3.024h-4.536v-2.376h7.704c0 .36-.072 1.08-.216 2.088a48 48 0 0 1-.432 2.592c-.144.72-.216 1.368-.36 1.872-.144.576-.216 1.008-.288 1.296h3.456v2.376h-8.64v5.112zm26.352-4.032v-2.376c-.576.144-1.584.216-2.808.288s-2.376.144-3.384.144h-3.744v-2.088h7.704v-2.376h-7.704v-2.16h7.992v-2.448H176.76v11.52h2.448c1.512 0 2.88-.072 4.248-.072.936-.072 2.016-.072 3.24-.216a62 62 0 0 0 2.736-.216m-39.816 0v-2.376h-10.368v2.376h2.376v2.448h-2.376v2.376h5.04v3.888h2.808v-6.264h-2.736v-2.448zm13.464-11.304v2.376h-8.568v-2.376zm0 7.848v7.488h-1.584v-5.112h-9.288v-2.376zm0 9.288h-5.328v-4.104h-2.736v6.48h8.064zm-23.832-9.432v-2.304c1.44 0 2.592-.144 3.6-.576.936-.36 1.368-.864 1.368-1.44 0-.648-.504-1.224-1.512-1.512-1.008-.36-2.16-.504-3.456-.504v-2.232c2.376 0 4.32.36 5.832 1.152 1.512.72 2.232 1.8 2.232 3.096 0 1.368-.72 2.448-2.232 3.168-1.512.792-3.456 1.152-5.832 1.152m0 1.224H128.88v2.376h5.256v2.448h-3.024v2.376h8.136v-2.376h-2.376v-2.448h2.376zm0-9.792v2.232h-.072c-1.224 0-2.376.144-3.384.504-1.08.432-1.584.936-1.584 1.584 0 .504.432 1.008 1.44 1.368.936.432 2.16.576 3.6.576v2.304c-2.376 0-4.32-.36-5.832-1.152-1.512-.72-2.304-1.8-2.304-3.168 0-1.296.792-2.304 2.304-3.096s3.456-1.152 5.832-1.152M329.256 370.578v-1.224h1.512l-1.512-3.816v-1.512h.792l3.384 8.568h-1.368l-.792-2.016zm0-6.552v1.512l-1.44 3.816h1.44v1.224h-1.944l-.792 2.016h-1.368l3.384-8.568zm-4.104 8.568h-1.584l-3.384-3.888-.576.576c-.216.144-.36.288-.432.36v2.952h-1.296v-8.568h1.296v4.032a23 23 0 0 0 1.872-1.872c.648-.72 1.296-1.44 1.872-2.16h1.584a50 50 0 0 1-1.728 2.016c-.576.648-1.08 1.224-1.584 1.728zm-12.168.288v-1.224c.792 0 1.44-.288 1.872-.936.504-.576.72-1.368.72-2.376 0-.936-.216-1.728-.72-2.376-.432-.576-1.08-.864-1.872-.936v-1.152c1.224 0 2.16.432 2.88 1.224q1.08 1.188 1.08 3.24t-1.08 3.24c-.72.864-1.656 1.296-2.88 1.296m0-9v1.152c-.792 0-1.368.36-1.872.936q-.648.972-.648 2.376 0 1.512.648 2.376c.504.648 1.08.936 1.872.936v1.224q-1.728 0-2.808-1.296-1.08-1.188-1.08-3.24t1.08-3.24c.72-.792 1.656-1.224 2.808-1.224m-7.704 5.688v-1.584h.216c.36 0 .792-.144 1.08-.36.36-.288.504-.576.504-1.08 0-.432-.144-.72-.432-.936a1.77 1.77 0 0 0-1.08-.36h-.288v-1.152h.288c.864 0 1.512.216 2.088.648.576.504.864 1.08.864 1.8 0 .576-.216 1.08-.576 1.584-.36.432-.864.72-1.44.936l2.52 3.528h-1.656zm0-5.472v1.152h-1.872v2.736h1.872v1.584l-.288-.36h-1.584v3.384h-1.296v-8.496zm-10.872 8.784v-1.224c.576 0 1.008-.144 1.296-.576q.432-.54.432-1.512c0-.72-.144-1.224-.432-1.584s-.72-.576-1.296-.576v-1.152c.288 0 .576.072.864.144q.432.216.864.648v-3.024h1.296l.072 8.64h-1.368v-.648a3.4 3.4 0 0 1-.864.648zm0-6.624v1.152c-.576 0-1.008.216-1.296.576-.288.432-.432.936-.432 1.584 0 .576.144 1.152.432 1.512.288.432.72.576 1.296.576v1.224h-.216c-.936 0-1.584-.36-2.16-.936-.504-.648-.792-1.44-.792-2.376 0-1.008.288-1.8.792-2.448.576-.576 1.224-.864 2.16-.864zm-13.608 6.48v-1.08c.432-.144.792-.288 1.08-.576.36-.288.576-.576.576-.864v-.648c-.144.072-.216.072-.36.144-.072 0-.216.072-.288.072-.288.072-.576.072-.936.144h-.072v-1.008c.288 0 .504-.072.72-.072.216-.072.432-.144.576-.216.216 0 .36-.216.36-.432s-.144-.432-.36-.576c-.216-.216-.648-.288-1.152-.288h-.144v-1.152h.144c.72 0 1.368.216 1.944.576q.864.54.864 1.512v3.312c0 .288.072.504.072.72l.144.288H282.6c0-.072-.072-.216-.072-.288-.072-.144-.072-.288-.144-.432a4.5 4.5 0 0 1-.864.648c-.216.072-.504.144-.72.216m9.648-.144v-4.176c0-.432-.144-.864-.504-1.368-.288-.432-.792-.72-1.44-.792a2.5 2.5 0 0 0-1.296.144c-.36.144-.648.36-.936.648v-.576h-1.296v6.12h1.296v-3.456c0-.504.144-.864.432-1.152.288-.36.648-.504 1.152-.504.432 0 .72.144.936.36s.36.648.36 1.152v3.6zm-9.648-6.408v1.152c-.432 0-.792.072-1.008.288-.288.216-.36.504-.36.792h-1.224c-.072-.72.144-1.224.72-1.584.504-.432 1.152-.576 1.872-.648m0 2.736v1.008c-.288.072-.576.072-.72.144-.288.144-.576.216-.72.36s-.216.36-.144.648.216.504.504.504c.288.072.576.144.864.072h.216v1.08c-.144.072-.36.072-.576.072a2.85 2.85 0 0 1-1.584-.288c-.504-.288-.72-.648-.792-1.224s0-1.08.288-1.44c.36-.288.72-.576 1.224-.72l1.08-.216zm-25.704 3.96v-1.224c.504 0 .936-.144 1.296-.576.288-.432.432-.936.432-1.584 0-.576-.144-1.152-.432-1.512-.36-.432-.792-.576-1.296-.576v-1.224c.936 0 1.728.36 2.304.936q.864.972.864 2.376t-.864 2.376c-.576.648-1.368 1.008-2.304 1.008m12.384-.288v-4.176c0-.504-.072-1.008-.36-1.44-.216-.432-.648-.648-1.224-.72-.648-.072-1.08 0-1.44.288-.36.216-.576.432-.72.648-.144-.288-.36-.576-.576-.72-.288-.144-.504-.216-.792-.216-.504-.072-.864 0-1.152.216-.288.144-.504.36-.72.576v-.576H259.2v6.12h1.296v-3.6c0-.504.072-.864.288-1.152.216-.216.504-.432.864-.432.432 0 .72.144.864.36.144.288.216.576.216 1.008v3.816h1.224v-3.6c0-.504.144-.864.36-1.152.216-.216.504-.432.864-.432.432 0 .72.144.864.36.072.288.144.576.144 1.008v3.816zm9.576 0v-4.176c0-.504-.144-1.008-.36-1.44s-.648-.648-1.224-.72c-.648-.072-1.08 0-1.44.288-.36.216-.576.432-.72.648-.144-.288-.36-.576-.576-.72a1.9 1.9 0 0 0-.864-.216q-.648-.108-1.08.216c-.288.144-.576.36-.72.576v-.576h-1.296v6.12h1.296v-3.6c0-.504.072-.864.288-1.152.216-.216.504-.432.864-.432.432 0 .72.144.864.36.144.288.144.576.144 1.008v3.816h1.296v-3.6c0-.504.144-.864.36-1.152.216-.216.504-.432.864-.432.432 0 .72.144.864.36.072.288.144.576.144 1.008v3.816zm-21.96-6.408v1.224c-.576 0-1.008.144-1.296.576-.288.36-.504.936-.504 1.512 0 .648.216 1.152.504 1.584s.72.576 1.296.576v1.224c-1.008 0-1.728-.36-2.304-1.008q-.864-.972-.864-2.376t.864-2.376c.576-.576 1.296-.936 2.304-.936m-26.064 6.696v-1.224c.504 0 .936-.144 1.224-.576.36-.432.504-.936.504-1.584 0-.576-.144-1.152-.504-1.512-.288-.432-.72-.576-1.224-.576v-1.224c.936 0 1.728.36 2.232.936q.864.972.864 2.376t-.864 2.376c-.504.648-1.296 1.008-2.232 1.008m7.416-6.696h-.36c-.288.072-.432.072-.648.144-.216.144-.432.216-.576.36a1.35 1.35 0 0 0-.432.504v-.792h-1.368v6.192h1.368v-2.88c0-.576.072-.936.216-1.296.144-.288.36-.504.72-.72.144-.072.36-.144.504-.144.144-.072.36-.072.576-.072zm3.528 6.48v-1.152h-.36a.55.55 0 0 1-.36-.144c-.144-.072-.144-.216-.144-.288v-3.528h.864v-1.08h-.864v-1.872h-1.368v1.872h-.72v1.08h.72v3.384c0 .288.072.576.072.72.072.216.144.36.288.504s.288.216.432.36c.216.072.36.144.648.144zm11.52-5.976c-.072-.576-.432-1.224-1.08-1.872-.576-.648-1.44-.936-2.592-.936-1.224 0-2.16.432-2.88 1.224s-1.008 1.872-1.008 3.24.288 2.448 1.008 3.24c.72.864 1.656 1.296 2.88 1.296 1.152 0 2.016-.36 2.592-1.008.576-.72.936-1.368 1.08-2.088h-1.368c-.144.504-.36.936-.72 1.296s-.864.576-1.584.576c-.792 0-1.368-.288-1.872-.936q-.648-.864-.648-2.376t.648-2.376c.504-.648 1.08-.936 1.872-.936.72 0 1.224.216 1.584.576.36.288.576.72.72 1.08zm-22.464-.504v1.224h-.072c-.504 0-.936.144-1.224.576-.36.36-.504.936-.504 1.512 0 .648.144 1.152.504 1.584.288.432.72.576 1.224.576h.072v1.224h-.072c-.936 0-1.728-.36-2.232-1.008q-.864-.972-.864-2.376t.864-2.376c.504-.576 1.296-.936 2.232-.936zm-6.912 6.696v-1.224c.504 0 .936-.216 1.224-.576.36-.36.504-.936.504-1.584s-.144-1.152-.504-1.512c-.288-.432-.72-.576-1.224-.576v-1.224h.216c.864 0 1.512.288 2.088.936.576.576.792 1.368.792 2.376s-.216 1.872-.792 2.448-1.224.936-2.088.936zm0-6.696v1.224h-.072c-.504 0-.936.144-1.224.576-.36.36-.504.864-.504 1.512s.144 1.224.504 1.584c.288.36.72.576 1.224.576h.072v1.224a8 8 0 0 1-.864-.216c-.36-.144-.648-.36-.936-.648v2.304h-1.296v-7.848h1.296v.504c.288-.288.576-.432.936-.576.216-.144.504-.144.864-.216m-7.128 6.696v-1.224c.504 0 .936-.216 1.224-.576.36-.36.504-.936.504-1.584s-.144-1.152-.504-1.512c-.288-.432-.72-.576-1.224-.576v-1.224h.144c.936 0 1.584.288 2.16.936.576.576.792 1.368.792 2.376s-.216 1.872-.792 2.448-1.224.936-2.16.936zm0-6.696v1.224h-.072c-.504 0-.936.144-1.296.576q-.432.54-.432 1.512c0 .648.144 1.224.432 1.584.36.36.792.576 1.296.576h.072v1.224a8 8 0 0 1-.864-.216c-.36-.144-.648-.36-.936-.648v2.304h-1.296v-7.848h1.296v.504c.288-.288.576-.432.936-.576.216-.144.504-.144.864-.216m-31.032 6.696v-1.224c.504 0 .936-.144 1.224-.576.36-.432.504-.936.504-1.584 0-.576-.144-1.152-.504-1.512-.288-.432-.72-.576-1.224-.576v-1.224c.936 0 1.728.36 2.304.936q.864.972.864 2.376t-.864 2.376c-.576.648-1.368 1.008-2.304 1.008m9.576-.288v-4.176c0-.432-.216-.864-.504-1.368-.288-.432-.792-.72-1.44-.792a2.5 2.5 0 0 0-1.296.144c-.36.144-.72.36-.936.648v-.576h-1.296v6.12h1.296v-3.456c0-.504.144-.864.432-1.152.288-.36.648-.504 1.08-.504.504 0 .792.144 1.008.36s.288.648.288 1.152l.072 3.6zm9.36-4.464a4.3 4.3 0 0 0-1.368-.432c-.504-.072-.864-.144-1.152-.288-.288-.072-.504-.216-.72-.36-.216-.216-.36-.432-.36-.792q0-.432.432-.864c.288-.288.648-.432 1.224-.432.648 0 1.08.144 1.368.504s.432.72.432 1.152h1.296c.072-.504-.144-1.08-.648-1.8-.432-.72-1.224-1.08-2.448-1.08-1.008 0-1.728.288-2.232.864-.504.504-.792 1.08-.864 1.656 0 .576.144 1.008.432 1.368s.72.648 1.296.936c.432.144.864.288 1.296.288s.864.144 1.224.288c.288.144.504.36.72.576.144.216.144.432.072.72-.072.36-.216.72-.504.936-.288.288-.792.36-1.368.36s-1.08-.144-1.44-.504q-.648-.54-.648-1.512h-1.296c0 .792.288 1.512.864 2.232.576.648 1.368 1.008 2.52 1.008 1.008 0 1.8-.216 2.376-.72s.864-1.08.936-1.728c.072-.504 0-1.008-.288-1.44s-.648-.72-1.152-.936m7.632 4.464v-6.12h-1.296v3.456c0 .504-.144.936-.432 1.224a1.47 1.47 0 0 1-1.08.432c-.432.072-.792-.072-1.008-.36-.216-.216-.36-.576-.36-1.152v-3.6h-1.296v4.104c0 .72.216 1.224.648 1.656.432.36.936.576 1.512.576.432.072.792-.072 1.152-.216q.54-.216.864-.648v.648zm-71.136 0-3.384-8.568h-.72v1.512l1.512 3.816h-1.512v1.224h1.944l.864 2.016zm44.568-6.408v1.224c-.576 0-1.008.144-1.296.576-.288.36-.504.936-.504 1.512 0 .648.216 1.152.504 1.584s.72.576 1.296.576v1.224c-1.008 0-1.728-.36-2.304-1.008q-.864-.972-.864-2.376t.864-2.376c.576-.576 1.296-.936 2.304-.936m-35.64 6.408v-4.176c0-.504-.072-1.008-.36-1.44-.216-.432-.648-.648-1.224-.72-.648-.072-1.08 0-1.44.288-.36.216-.576.432-.72.648-.144-.288-.36-.576-.576-.72-.288-.144-.504-.216-.792-.216-.504-.072-.864 0-1.152.216-.288.144-.504.36-.72.576v-.576h-1.296v6.12h1.296v-3.6c0-.504.072-.864.288-1.152.216-.216.504-.432.864-.432.432 0 .72.144.864.36.144.288.216.576.216 1.008v3.816h1.224v-3.6c0-.504.144-.864.36-1.152.216-.216.504-.432.864-.432.432 0 .72.144.864.36.072.288.144.576.144 1.008v3.816zm9.576 0v-4.176c0-.504-.072-1.008-.36-1.44-.216-.432-.648-.648-1.224-.72-.648-.072-1.08 0-1.44.288-.36.216-.576.432-.72.648-.144-.288-.36-.576-.576-.72-.288-.144-.504-.216-.864-.216q-.648-.108-1.08.216c-.288.144-.576.36-.72.576v-.576h-1.296v6.12h1.296v-3.6c0-.504.072-.864.288-1.152.216-.216.504-.432.864-.432.432 0 .72.144.864.36.144.288.144.576.144 1.008v3.816h1.296v-3.6c0-.504.144-.864.36-1.152.216-.216.504-.432.864-.432.432 0 .72.144.864.36.072.288.144.576.144 1.008v3.816zm6.624 0v-6.12h-1.296v3.456c0 .504-.144.936-.432 1.224a1.47 1.47 0 0 1-1.08.432c-.504.072-.792-.072-1.008-.36-.216-.216-.36-.576-.36-1.152v-3.6h-1.296v4.104c0 .72.216 1.224.648 1.656.36.36.864.576 1.44.576.432.072.864-.072 1.224-.216q.432-.216.864-.648v.648zm6.84 0v-4.176c0-.432-.216-.864-.504-1.368-.288-.432-.792-.72-1.44-.792a2.5 2.5 0 0 0-1.296.144c-.36.144-.72.36-.936.648v-.576h-1.296v6.12h1.296v-3.456c0-.504.144-.864.432-1.152.288-.36.648-.504 1.08-.504.504 0 .792.144 1.008.36s.288.648.288 1.152l.072 3.6zm2.52-7.272v-1.296h-1.296v1.296zm0 7.272v-6.192h-1.296v6.192zm3.744.072v-1.152h-.432c-.072 0-.216-.072-.36-.144a.55.55 0 0 1-.144-.288v-3.528h.936v-1.08h-.936v-1.872h-1.296v1.872h-.792v1.08h.792v3.384c0 .288 0 .576.072.72 0 .216.144.36.216.504.144.144.288.216.504.36.144.072.36.144.576.144zm2.232-7.344v-1.296h-1.296v1.296zm0 7.272v-6.192h-1.296v6.192zm-44.568-8.568h-.792l-3.384 8.568h1.368l.792-2.016h2.016v-1.224h-1.512l1.512-3.816zM160.056 116.058v-4.32c.576.36 1.44.432 2.52.216 1.512-.288 3.312-1.08 5.328-2.448q2.916-1.944 4.32-3.888c.936-1.368 1.08-2.376.576-3.168-.576-.864-1.584-1.08-3.168-.792-1.512.36-3.312 1.152-5.256 2.448q-3.024 1.944-4.32 3.888v-5.112c.72-.504 1.512-1.08 2.304-1.656 3.456-2.304 6.48-3.528 9-3.672s4.32.648 5.4 2.232c1.08 1.656 1.008 3.528-.144 5.76-1.08 2.304-3.384 4.536-6.84 6.84-3.456 2.232-6.48 3.456-8.928 3.672zm0-17.136h.216c.72-.072 1.44-.216 2.088-.36v-4.248c-.648.216-1.44.36-2.304.504zm0-14.904v-5.112l1.224-.864 4.176 6.264 3.744-2.448 2.16 3.24-3.744 2.52 4.32 6.48-3.6 2.376zm0-5.112v5.112l-2.376-3.6zm0 15.912v4.104c-.792.072-1.656.144-2.808.072-.864 0-1.728-.072-2.52-.288a9 9 0 0 1-1.8-.576c.072.648 0 1.368-.144 2.16s-.36 1.584-.648 2.52c-.288 1.008-.72 2.016-1.224 3.024s-1.008 1.872-1.512 2.52l-4.32-1.152c.576-.792 1.224-1.872 2.016-3.168.72-1.368 1.224-2.664 1.44-3.96q.432-1.836 0-3.24c-.216-1.008-.504-1.728-.792-2.232l-.36-.504-5.256 3.456-2.16-3.168 14.4-9.504 2.16 3.168-5.256 3.456.288.576c.36.432.864.936 1.656 1.44.792.576 1.728.936 2.736 1.08q2.16.432 3.672.216zm0 8.064q-3.24 2.592-4.536 5.184c-1.08 2.232-1.152 4.176-.072 5.832.936 1.44 2.52 2.16 4.608 2.16v-4.32a1.33 1.33 0 0 1-.576-.504c-.576-.864-.432-1.944.504-3.168 0-.072.072-.072.072-.072zm-36.72 45.288v-.288l8.424-10.944-4.896-3.816-3.528 4.536v-6.192l6.624-8.64-3.816-2.952-2.808 3.672v-11.304l12.312 9.432-5.976 7.776 4.896 3.816 8.64-11.232 2.952 2.304-20.016 26.064zm0-35.928v11.304l-6.624 8.64 3.816 2.952 2.808-3.672v6.192l-2.448 3.168-9.576-7.344v-5.472l2.376 1.872 9.432-12.312-4.032-3.168 2.592-3.456zm0 35.64v.288l-.144-.072zm-12.024 75.744v-24.768l3.24-.072.648 24.768zm0-38.16v-5.616c.216.432.576.648 1.008.792q1.404.432 2.808-1.296c.936-1.224 1.8-3.024 2.52-5.4.792-2.448 1.152-4.392 1.08-5.904s-.576-2.376-1.512-2.664q-1.404-.432-2.808 1.296-1.404 1.836-2.592 5.4c-.216.648-.36 1.296-.504 1.944v-9.36c.576-.936 1.224-1.728 1.872-2.304 1.872-1.728 3.672-2.304 5.472-1.728s3.024 2.088 3.528 4.536.144 5.76-1.152 9.792c-1.296 4.104-2.88 6.984-4.68 8.712-1.728 1.512-3.384 2.16-5.04 1.8m0-29.016v-1.728l.504.144zm0-28.44v5.472l-1.872-1.44v-5.112l.144-.216zm0 26.712v1.728l-1.872 5.832v-8.136zm0 9.936v9.36c-.36 1.512-.576 2.88-.504 3.96.072.792.216 1.44.504 1.872v5.616c-.144 0-.36-.072-.504-.144a4.8 4.8 0 0 1-1.368-.648V168.33a21.7 21.7 0 0 1 1.872-3.672m0 34.2v19.872l-.504-19.8zm0 20.448v4.32l-1.872.072v-4.32zm-5.112-19.584h-.864v4.392l1.008-.072zm3.24-72.792v5.112l-2.448-1.872zm0 27.216v8.136l-4.104 12.96v-12.384l2.952-9.144zm0 14.184c-.288.792-.648 1.728-.936 2.664-1.296 4.104-1.656 7.344-1.152 9.792.36 1.8 1.08 3.096 2.088 3.888zm0 51.048v4.32l-4.104.072v-4.32zm-4.104-19.656-3.6.144v4.32l3.6-.072zm0-36.864v12.384l-3.456 10.944-.144-.072v-11.736zm0 56.592v4.32l-.864.072-.072-4.32zm-3.6 8.856v-3.456c0 .072.072.072.072.144.432.792.792 1.512 1.152 2.088zm0-66.096v-6.12c.504-.72.864-1.368 1.224-1.872l2.088 3.384c-.288.504-.792 1.296-1.584 2.448a23 23 0 0 1-1.728 2.16m0 37.656-7.92.216v10.872h.432l-.144-6.552 7.632-.216zm0-43.776v6.12l-1.08 1.08c-1.008 1.008-1.944 1.8-2.88 2.376-.936.648-1.728 1.008-2.448 1.224.504.504.936 1.296 1.368 2.304.36 1.08.72 2.232 1.008 3.672.216 1.44.36 2.88.36 4.248s-.072 2.376-.072 2.952l-3.672 1.512c0-.864.072-2.088.072-3.6 0-1.44-.216-3.024-.576-4.608v-10.44c.144-.072.288-.072.432-.144 1.152-.36 2.304-1.008 3.528-2.088 1.296-1.152 2.376-2.304 3.168-3.528.288-.36.576-.72.792-1.08m0 18.288-3.384 10.656 3.384 1.08zm0 50.472v3.456l-1.944 1.944a18.5 18.5 0 0 0-1.584-2.808c-.576-.936-1.368-1.944-2.304-3.024-.576-.648-1.296-1.152-2.088-1.584v-7.272a16 16 0 0 0 1.584-1.584c.72-1.008 1.296-1.8 1.656-2.52.432-.792.72-1.584 1.008-2.52l3.456 2.52a15 15 0 0 1-.792 1.872c-.288.648-.792 1.44-1.44 2.376-.432.72-.936 1.368-1.44 1.944-.576.576-1.08 1.08-1.656 1.583q.972.54 1.944 1.297a17.4 17.4 0 0 1 1.944 2.016c.648.792 1.224 1.584 1.656 2.304m-7.92-24.768-11.304.216.072 4.392 7.56-.216.144 6.551 3.528-.071zm0-37.152v10.44l-.072-.072c-.36-1.584-.864-2.808-1.584-3.744-.792-.864-1.656-1.512-2.736-1.872l-1.152-.36 1.584-4.896 1.08.36c.936.288 1.872.36 2.88.144m0 52.632v7.272a8 8 0 0 1-.792-.432c-1.152-.432-2.448-.72-3.744-.648h-.504l.144 6.336-3.816.072-.432-17.28 3.816-.072.144 6.336h.504c1.296 0 2.52-.36 3.528-.936.432-.216.792-.432 1.152-.648M380.448 224.202v-4.32l5.832-.072v4.32zm0-9.288v-4.248h.216c.576 0 1.224-.36 1.872-1.08s.936-1.872.936-3.456c0-1.656-.36-2.736-1.008-3.456s-1.296-1.008-1.872-1.008h-.144v-4.32c0-.072.072-.072.144-.072 1.656 0 3.024.792 4.32 2.232 1.224 1.512 1.872 3.744 1.872 6.552 0 2.952-.576 5.184-1.8 6.624-1.224 1.512-2.664 2.232-4.248 2.232zm0-40.896v-4.68l.792-.36 1.584 4.032zm0-4.68v4.68l-16.92 6.552v-4.608zm0 28.008v4.32c-.504.072-1.008.432-1.584 1.08-.576.72-.936 1.872-.936 3.384.072 1.656.36 2.808 1.008 3.528.504.575 1.008.864 1.512 1.008v4.248c-1.584-.072-2.952-.792-4.104-2.232s-1.8-3.672-1.8-6.552.576-5.04 1.8-6.552c1.152-1.44 2.52-2.232 4.104-2.232m0 22.536-12.672.072-.072-7.704-3.6.072.072 7.632h-.648v4.32l16.92-.072zm-16.92-13.032v-4.464l5.472-.072-.072-7.632h3.888v11.16c.072 1.8.144 4.248.432 7.272.216 2.952.432 4.824.648 5.688h-3.744c-.288-1.368-.504-3.456-.72-6.12-.288-2.736-.36-4.68-.36-5.832zm0-42.84v-6.552c1.656-.36 2.88-.648 3.744-.936l1.224-.504-2.592-6.696 3.528-1.368 6.912 17.64-3.528 1.368-2.592-6.696-1.296.504c-.864.36-2.16 1.008-3.816 2.088-.576.36-1.08.72-1.584 1.152m0-6.552v6.552c-.648.576-1.224 1.152-1.656 1.728v-8.064c.432-.072.936-.144 1.368-.216zm0 18.504v4.608l-1.656.648v-4.608zm0 26.424v4.464h-.072v-4.464zm0 17.568v4.32h-1.656v-4.32zm-1.656-15.192v-4.608h.288v4.608zm0-47.088v8.064c-.288.36-.576.72-.792 1.08-.864 1.44-1.512 2.808-1.872 4.176s-.648 2.304-.72 2.88l-4.032-1.44.432-2.16q.324-1.62 1.296-3.456.648-1.512 1.512-2.592a28 28 0 0 1 1.728-2.16c-1.008 0-2.016-.144-3.024-.36s-2.16-.504-3.384-1.008a16.7 16.7 0 0 1-2.808-1.296c-.792-.504-1.656-1.08-2.592-1.656l1.296-4.392a40 40 0 0 0 4.392 2.664c1.512.72 3.024 1.224 4.608 1.44 1.296.216 2.592.288 3.96.216m0 18.936v4.608l-9.648 3.744-1.584-4.032zm0 23.544v4.608h-4.032l.144 20.304h-3.744l-.144-24.84zm0 19.8h-.36v4.32h.36zm-18-81.072v-1.728l.792 1.008zm0-4.032 1.944 2.304 3.384-2.952 3.024 3.6 2.808-2.448-2.952-3.528 2.592-2.232 3.024 3.528 2.808-2.304-3.024-3.6 3.096-2.664-2.808-3.312-13.896 11.88zm0-9.792v-4.608c.216-.144.432-.288.648-.504.936-.792 1.44-1.728 1.584-2.952.144-1.152-.288-2.304-1.224-3.456a6.7 6.7 0 0 0-1.008-1.008v-4.464c1.44.576 2.736 1.584 3.888 2.952 1.728 2.016 2.52 4.248 2.448 6.552s-.936 4.248-2.736 5.76c-1.08.936-2.304 1.512-3.6 1.728m-31.824-37.44 1.44.864 1.944-3.312-3.384-2.016zm31.824 20.448v4.464c-.72-.504-1.44-.72-2.232-.792-1.224 0-2.232.36-3.168 1.08-.936.792-1.44 1.8-1.584 2.952-.072 1.224.288 2.376 1.224 3.456 1.008 1.152 2.088 1.728 3.24 1.8.936.072 1.728-.144 2.52-.576v4.608c-.792.144-1.656.144-2.52.072-2.304-.36-4.32-1.512-6.048-3.528s-2.52-4.248-2.448-6.552 1.008-4.176 2.736-5.688c1.8-1.512 3.816-2.088 6.12-1.8.72.072 1.44.288 2.16.504m0 25.056v1.728l-.864-1.008zm0 4.032-14.76-17.352-2.952 2.448 12.816 15.12-6.192 5.184 2.808 3.312 8.28-6.984zm-31.824-27.936v-7.704l8.928-15.048 3.744 2.232-4.68 7.848 3.96 2.376-2.016 3.384-3.96-2.304-5.616 9.432zm-2.088-8.64 1.224-2.088c-.36-.144-.792-.288-1.224-.504zm0-6.912 1.44-2.448-1.44-.864zm0-7.272 2.088 1.224v-4.464l-2.088-1.224zm2.088 15.12v7.704l-2.088-1.224v-2.88zm-2.088 14.256v-2.88l1.224.72zm-.72-14.04.72-1.152v-2.592a82 82 0 0 1-2.88-1.368q-2.592-1.404-4.752-2.592l-.936-.504v4.248c1.152.648 2.448 1.296 3.888 2.016 1.656.936 3.024 1.512 3.96 1.944m-7.848-12.168v-4.32l8.568 5.112v3.312l-.432.72zm0-5.544 1.152-2.016 7.416 4.392V81.93l-8.568-5.112zm8.568 21.096v2.88l-1.296-.792zm0 7.776-8.568-5.112v4.392l7.92 4.68.648-1.08zm-8.568-19.368-4.104-2.52 1.656-2.88 2.448 1.44v-4.32l-.576-.288.576-.936v-7.2l-.576-.288-9.216 15.624c.144.072 1.296.72 3.312 1.944 2.088 1.224 3.96 2.304 5.832 3.312.216.144.432.288.648.36zm0 14.256v4.392l-12.888-7.632 5.184-8.712 3.816 2.232-3.24 5.472z" style="fill:#2c2c2b;stroke:none;stroke-width:.338011" transform="matrix(1.72002 0 0 1.72002 -141.923 -104.073)"/></g></svg>